<svg width="21" height="20" viewBox="0 0 21 20" fill="none" xmlns="http://www.w3.org/2000/svg">
<path d="M14.5 2.03236C15.5971 2.03551 16.6483 2.45628 17.424 3.20276C18.1998 3.94925 18.637 4.9608 18.6403 6.01648V13.9839C18.637 15.0396 18.1998 16.0511 17.424 16.7976C16.6483 17.5441 15.5971 17.9649 14.5 17.968H6.22025C5.12318 17.9649 4.07197 17.5441 3.29622 16.7976C2.52047 16.0511 2.08321 15.0396 2.07993 13.9839V6.01648C2.08321 4.9608 2.52047 3.94925 3.29622 3.20276C4.07197 2.45628 5.12318 2.03551 6.22025 2.03236H14.5ZM14.5 0.438965H6.22025C3.03229 0.438965 0.424072 2.94878 0.424072 6.01648V13.9839C0.424072 17.0516 3.03229 19.5614 6.22025 19.5614H14.5C17.688 19.5614 20.2962 17.0516 20.2962 13.9839V6.01648C20.2962 2.94878 17.688 0.438965 14.5 0.438965Z" fill="white"/>
<path d="M15.742 6.01677C15.4964 6.01677 15.2562 5.94668 15.052 5.81535C14.8477 5.68403 14.6885 5.49737 14.5945 5.27898C14.5005 5.0606 14.4759 4.82029 14.5239 4.58846C14.5718 4.35662 14.6901 4.14366 14.8638 3.97652C15.0375 3.80937 15.2588 3.69555 15.4997 3.64943C15.7406 3.60331 15.9903 3.62698 16.2173 3.71744C16.4442 3.8079 16.6382 3.96108 16.7747 4.15763C16.9112 4.35417 16.984 4.58524 16.984 4.82162C16.9844 4.97866 16.9525 5.13423 16.8902 5.27938C16.8279 5.42454 16.7364 5.55642 16.621 5.66747C16.5056 5.77852 16.3686 5.86654 16.2177 5.92648C16.0669 5.98642 15.9052 6.01711 15.742 6.01677ZM10.3601 6.81325C11.0152 6.81325 11.6556 7.00018 12.2003 7.3504C12.7449 7.70061 13.1695 8.19839 13.4202 8.78077C13.6708 9.36316 13.7364 10.004 13.6086 10.6223C13.4808 11.2405 13.1654 11.8084 12.7022 12.2542C12.239 12.6999 11.6488 13.0035 11.0063 13.1264C10.3638 13.2494 9.69783 13.1863 9.09261 12.9451C8.48739 12.7038 7.9701 12.2953 7.60615 11.7712C7.24221 11.2471 7.04795 10.6308 7.04795 10.0005C7.04889 9.15544 7.39815 8.34529 8.0191 7.74777C8.64005 7.15024 9.48197 6.81416 10.3601 6.81325ZM10.3601 5.21986C9.37754 5.21986 8.41702 5.50024 7.60003 6.02554C6.78304 6.55084 6.14628 7.29747 5.77026 8.17101C5.39424 9.04455 5.29586 10.0058 5.48755 10.9331C5.67924 11.8605 6.1524 12.7123 6.84719 13.3809C7.54198 14.0494 8.4272 14.5048 9.3909 14.6892C10.3546 14.8737 11.3535 14.779 12.2613 14.4172C13.1691 14.0553 13.945 13.4426 14.4909 12.6564C15.0368 11.8703 15.3281 10.946 15.3281 10.0005C15.3281 8.73257 14.8047 7.51661 13.873 6.62007C12.9414 5.72353 11.6777 5.21986 10.3601 5.21986Z" fill="white"/>
</svg>
