<svg width="20" height="16" viewBox="0 0 20 16" fill="none" xmlns="http://www.w3.org/2000/svg">
<path d="M20 2.1537C19.2809 2.46592 18.5201 2.67161 17.7416 2.76428C18.5597 2.28554 19.175 1.52498 19.472 0.625233C18.6985 1.07722 17.8536 1.39436 16.9736 1.56306C16.603 1.17497 16.1573 0.866237 15.6637 0.65562C15.17 0.445004 14.6386 0.336906 14.1018 0.337897C11.9284 0.337897 10.1697 2.06989 10.1697 4.20495C10.1681 4.50193 10.2022 4.79802 10.2711 5.08691C8.71265 5.0139 7.18663 4.61663 5.79064 3.92051C4.39465 3.22439 3.15944 2.24475 2.16404 1.04426C1.81482 1.63255 1.63014 2.30377 1.62929 2.98777C1.62929 4.32866 2.32937 5.51392 3.38648 6.20832C2.76018 6.19346 2.1467 6.02781 1.59814 5.72543V5.77332C1.59814 7.64898 2.95597 9.20937 4.7531 9.56455C4.41515 9.65458 4.0669 9.70019 3.71716 9.70024C3.46898 9.70067 3.22138 9.67661 2.97794 9.6284C3.47754 11.1648 4.93162 12.2823 6.65407 12.3142C5.25445 13.3921 3.53609 13.9746 1.76907 13.9704C1.45542 13.9699 1.14206 13.9512 0.830566 13.9145C2.62817 15.0615 4.71774 15.6682 6.85055 15.6624C14.0934 15.6624 18.0503 9.76808 18.0503 4.65591C18.0503 4.4883 18.0459 4.32068 18.0379 4.15706C18.8059 3.61115 19.4703 2.93274 20 2.1537V2.1537Z" fill="white"/>
</svg>
